<?xml version="1.0" standalone="no"?><svg xmlns="http://www.w3.org/2000/svg" viewBox="0 0 1440 320"><path fill="#FFFFFF1C" fill-opacity="1" d="M0,160L20,181.3C40,203,80,245,120,266.7C160,288,200,288,240,250.7C280,213,320,139,360,106.7C400,75,440,85,480,122.7C520,160,560,224,600,208C640,192,680,96,720,90.7C760,85,800,171,840,224C880,277,920,299,960,266.7C1000,235,1040,149,1080,133.3C1120,117,1160,171,1200,165.3C1240,160,1280,96,1320,112C1360,128,1400,224,1420,272L1440,320L1440,320L1420,320C1400,320,1360,320,1320,320C1280,320,1240,320,1200,320C1160,320,1120,320,1080,320C1040,320,1000,320,960,320C920,320,880,320,840,320C800,320,760,320,720,320C680,320,640,320,600,320C560,320,520,320,480,320C440,320,400,320,360,320C320,320,280,320,240,320C200,320,160,320,120,320C80,320,40,320,20,320L0,320Z"></path></svg>